 <svg
      className="ribbon"
      version="1.1"
      id="_x34_"
      xmlns="http://www.w3.org/2000/svg"
      xmlnsXlink="http://www.w3.org/1999/xlink"
      viewBox="0 0 512 512"
      xmlSpace="preserve"
      width="290px"
      height="270px"
    >
      <g>
        <g>
          <g>
            <polygon
              opacity=".6"
              fill="#B23B39"
              points="159.071,64.597 159.071,192.664 0,192.664 4.448,187.352 54.307,128.663 0,64.597"
            />
            <polygon
              opacity=".6"
              fill="#8F302E"
              points="89.213,142.217 159.051,142.217 159.051,191 			"
            />
          </g>
          <g>
            <polygon
              opacity=".6"
              fill="#B23B39"
              points="457.693,128.663 512,192.664 352.93,192.664 352.93,64.597 512,64.597 507.22,70.24 			
				"
            />
            <polygon
              opacity=".6"
              fill="#8F302E"
              points="422.787,142.217 352.949,142.217 352.949,191.686 			"
            />
          </g>
          <rect
            y="30"
            x="89.693"
            fill="#D04C4A"
            width="332.614"
            height="142.539"
          />
        </g>
        <polygon
          opacity="0.06"
          fill="#040000"
          points="457.693,128.663 512,192.664 352.93,192.664 352.93,142.539 209.793,142.539 
		352.332,0 422.307,0 422.307,64.597 512,64.597 507.22,70.24 	"
        />
      </g>
    </svg>